<?xml version="1.0" encoding="UTF-8" standalone="no"?>
<!-- Created with Inkscape (http://www.inkscape.org/) -->
<svg
   xmlns:svg="http://www.w3.org/2000/svg"
   xmlns="http://www.w3.org/2000/svg"
   version="1.0"
   width="490"
   height="140"
   id="svg4566">
  <rect
     width="490.14"
     height="140.07"
     x="-1.1737e-08"
     y="-0.074486"
     id="rect18917"
     style="opacity:1;fill:#ffffff;fill-opacity:1;fill-rule:evenodd;stroke:none;stroke-width:2;stroke-linecap:butt;stroke-linejoin:miter;stroke-miterlimit:4;stroke-dasharray:none;stroke-dashoffset:0;stroke-opacity:1" />
  <path
     d="M 31.169,28.139 L 55.411,28.139 L 55.411,49.265 L 31.169,49.265 L 31.169,28.139 z M 31.169,70.274 L 55.411,70.274 L 55.411,91.4 L 31.169,91.4 L 31.169,70.274 z M 129.87,29.062 L 154.11,29.062 L 154.11,50.188 L 129.87,50.188 L 129.87,29.062 z M 129.87,71.198 L 154.11,71.198 L 154.11,92.324 L 129.87,92.324 L 129.87,71.198 z M 194.29,70.563 L 218.53,70.563 L 218.53,91.689 L 194.29,91.689 L 194.29,70.563 z"
     id="rect5528"
     style="fill:#c0c0c0;fill-opacity:1;fill-rule:evenodd;stroke:#000000;stroke-width:1;stroke-linecap:butt;stroke-linejoin:miter;stroke-miterlimit:4;stroke-dashoffset:0;stroke-opacity:1" />
  <path
     d="M 31.169,49.206 L 55.411,49.206 L 55.411,70.332 L 31.169,70.332 L 31.169,49.206 z M 31.169,91.342 L 55.411,91.342 L 55.411,112.47 L 31.169,112.47 L 31.169,91.342 z M 129.87,50.13 L 154.11,50.13 L 154.11,71.256 L 129.87,71.256 L 129.87,50.13 z M 194.29,49.495 L 218.53,49.495 L 218.53,70.621 L 194.29,70.621 L 194.29,49.495 z M 194.29,91.631 L 218.53,91.631 L 218.53,112.76 L 194.29,112.76 L 194.29,91.631 z"
     id="rect5530"
     style="fill:none;fill-opacity:1;fill-rule:evenodd;stroke:#000000;stroke-width:1;stroke-linecap:butt;stroke-linejoin:miter;stroke-miterlimit:4;stroke-dashoffset:0;stroke-opacity:1" />
  <path
     d="M 43.29,3.5498 L 43.29,27.792 M 43.29,131.34 L 43.29,112.29 M 31.169,80.837 L 11.082,80.837 M 141.99,28.831 L 141.99,13.247 M 206.41,112.99 L 206.41,135.15 M 154.46,60.693 L 193.59,60.693 M 154.46,81.76 L 193.59,81.76 M 129.52,81.76 L 110.82,81.76"
     id="path10013"
     style="opacity:1;fill:none;fill-rule:evenodd;stroke:#000000;stroke-width:1px;stroke-linecap:butt;stroke-linejoin:miter;stroke-opacity:1" />
  <path
     d="M 328.66,43.897 C 328.66,59.286 316.18,71.761 300.79,71.761 C 285.4,71.761 272.92,59.286 272.92,43.897 C 272.92,28.508 285.4,16.033 300.79,16.033 C 316.18,16.033 328.66,28.508 328.66,43.897 z M 395.32,88.399 C 395.32,103.79 382.84,116.26 367.45,116.26 C 352.06,116.26 339.59,103.79 339.59,88.399 C 339.59,73.01 352.06,60.535 367.45,60.535 C 382.84,60.535 395.32,73.01 395.32,88.399 z"
     id="path10031"
     style="fill:none;fill-opacity:1;fill-rule:evenodd;stroke:#000000;stroke-width:2.00006;stroke-linecap:butt;stroke-linejoin:miter;stroke-miterlimit:4;stroke-dasharray:none;stroke-dashoffset:0;stroke-opacity:1" />
  <path
     d="M 246.58,85.974 L 355.67,85.974 M 280.52,1.4719 L 280.52,23.636 L 304.72,31.506 M 304.42,55.152 L 280.87,64.502 L 280.87,86.32 M 313.07,43.723 L 388.23,43.723 L 388.23,68.312 L 364.33,77.316 M 364.33,100.17 L 387.88,108.14 L 387.88,135.84"
     id="path12694"
     style="fill:none;fill-rule:evenodd;stroke:#000000;stroke-width:1px;stroke-linecap:butt;stroke-linejoin:miter;stroke-opacity:1" />
  <path
     d="M 285.02,85.801 C 285.02,88.191 283.09,90.13 280.69,90.13 C 278.3,90.13 276.37,88.191 276.37,85.801 C 276.37,83.41 278.3,81.472 280.69,81.472 C 283.09,81.472 285.02,83.41 285.02,85.801 z M 304.4,23.272 L 313.44,23.272 L 313.44,63.482 L 304.4,63.482 L 304.4,23.272 z M 355.65,67.947 L 364.69,67.947 L 364.69,108.16 L 355.65,108.16 L 355.65,67.947 z M 294.74,25.889 L 293.34,30.531 L 304.65,31.412 L 294.74,25.889 z M 378.08,102.26 L 376.68,106.9 L 387.99,107.78 L 378.08,102.26 z"
     id="path12704"
     style="fill:#000000;fill-opacity:1;fill-rule:evenodd;stroke:none;stroke-width:2;stroke-linecap:butt;stroke-linejoin:miter;stroke-miterlimit:4;stroke-dasharray:none;stroke-dashoffset:0;stroke-opacity:1" />
  <path
     d="M 472.71,78.08 L 448.71,78.08"
     id="path2520"
     style="fill:none;fill-opacity:0.75;fill-rule:evenodd;stroke:#000000;stroke-width:1.5;stroke-linecap:round;stroke-linejoin:round;stroke-miterlimit:4;stroke-dasharray:none;stroke-opacity:1" />
  <path
     d="M 460.71,23.08 L 460.71,58.08 M 472.71,58.08 L 448.71,58.08 M 472.71,58.08 L 460.71,78.08 M 448.71,58.08 L 460.71,78.08 M 460.71,78.08 L 460.71,113.08 M 449.75,89.08 L 455,78.08 M 449.75,89.08 L 436.21,89.08"
     id="path2512"
     style="fill:none;fill-opacity:0.75;fill-rule:evenodd;stroke:#000000;stroke-width:1.5;stroke-linecap:round;stroke-linejoin:round;stroke-miterlimit:4;stroke-dasharray:none;stroke-opacity:1" />
  <text
     xml:space="preserve"
     style="font-size:10px;font-style:normal;font-variant:normal;font-weight:normal;font-stretch:normal;text-align:start;line-height:125%;writing-mode:lr-tb;text-anchor:start;fill:#000000;fill-opacity:1;stroke:none;stroke-width:1px;stroke-linecap:butt;stroke-linejoin:miter;stroke-opacity:1;font-family:Bitstream Vera Sans"><tspan
       x="445.0386"
       y="17.379999"
       id="tspan4255">Anode</tspan>
     <tspan
       x="439.68948"
       y="127.38"
       id="tspan4259">Cathode</tspan>
     <tspan
       x="421.70999"
       y="102.38"
       id="tspan4263">Gate</tspan>
     <tspan
       x="202.40498"
       y="85.499557"
       id="tspan6443">P</tspan>
     <tspan
       x="39.28809"
       y="43.075325"
       id="tspan6447">P</tspan>
     <tspan
       x="39.28809"
       y="85.210968"
       id="tspan6451">P</tspan>
     <tspan
       x="38.801762"
       y="64.143143"
       id="tspan9995">N</tspan>
     <tspan
       x="38.801762"
       y="106.27879"
       id="tspan9999">N</tspan>
     <tspan
       x="137.50307"
       y="65.066666"
       id="tspan10003">N</tspan>
     <tspan
       x="201.91866"
       y="64.431747"
       id="tspan10007">N</tspan>
     <tspan
       x="201.91866"
       y="106.56738"
       id="tspan10011">N</tspan>
     <tspan
       x="51.255413"
       y="11.861472"
       id="tspan14482">Anode</tspan>
     <tspan
       x="48.831169"
       y="130.30304"
       id="tspan14486">Cathode</tspan>
     <tspan
       x="2.0779221"
       y="92.207787"
       id="tspan14490">Gate</tspan>
     <tspan
       x="137.9894"
       y="43.998844"
       id="tspan6435">P</tspan>
    <tspan
       x="137.9894"
       y="86.134491"
       id="tspan6439">P</tspan>
  </text>
</svg>
